<svg id="Capa_1" data-name="Capa 1" xmlns="http://www.w3.org/2000/svg" viewBox="0 0 467.22 207.46"><defs><style>.cls-1,.cls-3{fill:#928681;}.cls-1,.cls-2{stroke:#fff;stroke-miterlimit:10;stroke-width:20px;}.cls-2{fill:#fff;}.cls-4{fill:#fac26f;}.cls-5{fill:#f18925;}.cls-6{fill:#e7443e;}.cls-7{fill:#b31829;}</style></defs><title>Sin título-2</title><path class="cls-1" d="M337.21,179.7q-8.29,0-8.29-9.07V124.71c0-3,.71-5.33,2.14-6.82a7.84,7.84,0,0,1,5.95-2.25h1.85a14.87,14.87,0,0,1,2.93.25,6.77,6.77,0,0,1,2.14.83,8.86,8.86,0,0,1,1.81,1.46c.55.58,1.18,1.27,1.9,2l22.61,29.44v-25c0-6,2.84-9.07,8.49-9.07h1.66q8.19,0,8.18,9.07v45.92c0,3.06-.7,5.33-2.09,6.83a7.57,7.57,0,0,1-5.8,2.24h-1.56a15.73,15.73,0,0,1-3-.24,8,8,0,0,1-2.14-.73,7.39,7.39,0,0,1-1.75-1.32c-.56-.55-1.16-1.22-1.81-2l-23.1-29.93v25.15q0,9.08-8.49,9.07Z" transform="translate(-71.78 -44.75)"/><path class="cls-1" d="M445.93,172.19a17.28,17.28,0,0,1-7.12,5.85,26.31,26.31,0,0,1-11.21,2.15,30.4,30.4,0,0,1-12.38-2.44,27.3,27.3,0,0,1-9.46-6.78,30.83,30.83,0,0,1-6-10.28,38.29,38.29,0,0,1-2.15-13.07,34.23,34.23,0,0,1,2.49-13.16,30.47,30.47,0,0,1,7-10.43A32,32,0,0,1,418,117.2a39.21,39.21,0,0,1,14.14-2.43,44.38,44.38,0,0,1,10.57,1.13,27.36,27.36,0,0,1,7.85,3.09,14.3,14.3,0,0,1,4.88,4.65,11,11,0,0,1,1.65,5.84,6.78,6.78,0,0,1-1.46,4.44,11.61,11.61,0,0,1-3.21,2.83,12.65,12.65,0,0,1-3.32,1.42c-1,.26-1.62.29-1.75.09a17.48,17.48,0,0,0-6.2-5,17.85,17.85,0,0,0-7.84-1.75,16,16,0,0,0-6.29,1.21,15.27,15.27,0,0,0-5.07,3.5,16.2,16.2,0,0,0-3.41,5.45,19,19,0,0,0-1.22,7,20.52,20.52,0,0,0,1.12,7,16.09,16.09,0,0,0,3.12,5.35,13.79,13.79,0,0,0,4.77,3.45,15.27,15.27,0,0,0,6.1,1.21,14.26,14.26,0,0,0,8.43-2.24,9.48,9.48,0,0,0,3.95-6h-6.53q-4.59,0-6.88-1.36c-1.52-.91-2.29-2.7-2.29-5.37v-.87q0-4.19,2.25-5.46t6.92-1.27h17.16q4.19,0,5.51,2.05c.87,1.36,1.28,3.44,1.21,6.24v26.42c0,.32-.65.73-1.95,1.22a13,13,0,0,1-4.58.73,12.65,12.65,0,0,1-2.92-.34,9.15,9.15,0,0,1-2.78-1.17,8.19,8.19,0,0,1-2.34-2.29,11.56,11.56,0,0,1-1.61-3.71" transform="translate(-71.78 -44.75)"/><path class="cls-1" d="M500,145.67c2.94,0,5.14-.63,6.62-1.9a6.75,6.75,0,0,0,2.2-5.4q0-7.43-9-7.42h-8v14.72ZM529,173c.13.2,0,.65-.34,1.37a8.07,8.07,0,0,1-1.91,2.29,12.37,12.37,0,0,1-3.6,2.14,14,14,0,0,1-5.36.93,14.75,14.75,0,0,1-4-.49,11.69,11.69,0,0,1-3.32-1.51,14.28,14.28,0,0,1-2.92-2.58q-1.37-1.56-2.93-3.71l-8.87-11.79h-3.6v11c0,2.92-.72,5.17-2.15,6.73s-3.58,2.34-6.44,2.34h-2.73a7.09,7.09,0,0,1-6.19-3c-1.39-2-2.09-4.76-2.09-8.33V127.05c0-3.57.86-6.29,2.58-8.14s4.21-2.78,7.46-2.78H502q13.26,0,19.79,5.27t6.53,15.5a19.45,19.45,0,0,1-3.44,11.7,18.36,18.36,0,0,1-10.14,6.73Z" transform="translate(-71.78 -44.75)"/><path class="cls-2" d="M257,117.23H240.64c-.38-4.46-1-8-1.82-9.82C233.65,95.68,219.76,88.08,206.76,85V67a12.29,12.29,0,0,0-12.3-12.29H156.57A12.3,12.3,0,0,0,144.27,67V84.78c2.46-.37,5-.65,7.65-.86-2.62.21-5.19.49-7.65.86-1.32.2-2.62.41-3.88.67-19.16,4-27.25,13.16-29.37,31.78H94.09a12.31,12.31,0,0,0-12.31,12.3v37.89a12.31,12.31,0,0,0,12.31,12.3h17.17c0-.28-.05-.57-.08-.86,0,.29,0,.58.08.86,2.14,20.12,16.37,27.67,33,30.58v19.61a12.31,12.31,0,0,0,12.31,12.3h37.88a12.3,12.3,0,0,0,12.3-12.3V213l1.81-.17c19.27-1.81,28.51-16.09,31.45-33.09H257a12.3,12.3,0,0,0,12.29-12.3V129.53A12.3,12.3,0,0,0,257,117.23Z" transform="translate(-71.78 -44.75)"/><path class="cls-3" d="M337.21,179.7q-8.29,0-8.29-9.07V124.71c0-3,.71-5.33,2.14-6.82a7.84,7.84,0,0,1,5.95-2.25h1.85a14.87,14.87,0,0,1,2.93.25,6.77,6.77,0,0,1,2.14.83,8.86,8.86,0,0,1,1.81,1.46c.55.58,1.18,1.27,1.9,2l22.61,29.44v-25c0-6,2.84-9.07,8.49-9.07h1.66q8.19,0,8.18,9.07v45.92c0,3.06-.7,5.33-2.09,6.83a7.57,7.57,0,0,1-5.8,2.24h-1.56a15.73,15.73,0,0,1-3-.24,8,8,0,0,1-2.14-.73,7.39,7.39,0,0,1-1.75-1.32c-.56-.55-1.16-1.22-1.81-2l-23.1-29.93v25.15q0,9.08-8.49,9.07Z" transform="translate(-71.78 -44.75)"/><path class="cls-3" d="M445.93,172.19a17.28,17.28,0,0,1-7.12,5.85,26.31,26.31,0,0,1-11.21,2.15,30.4,30.4,0,0,1-12.38-2.44,27.3,27.3,0,0,1-9.46-6.78,30.83,30.83,0,0,1-6-10.28,38.29,38.29,0,0,1-2.15-13.07,34.23,34.23,0,0,1,2.49-13.16,30.47,30.47,0,0,1,7-10.43A32,32,0,0,1,418,117.2a39.21,39.21,0,0,1,14.14-2.43,44.38,44.38,0,0,1,10.57,1.13,27.36,27.36,0,0,1,7.85,3.09,14.3,14.3,0,0,1,4.88,4.65,11,11,0,0,1,1.65,5.84,6.78,6.78,0,0,1-1.46,4.44,11.61,11.61,0,0,1-3.21,2.83,12.65,12.65,0,0,1-3.32,1.42c-1,.26-1.62.29-1.75.09a17.48,17.48,0,0,0-6.2-5,17.85,17.85,0,0,0-7.84-1.75,16,16,0,0,0-6.29,1.21,15.27,15.27,0,0,0-5.07,3.5,16.2,16.2,0,0,0-3.41,5.45,19,19,0,0,0-1.22,7,20.52,20.52,0,0,0,1.12,7,16.09,16.09,0,0,0,3.12,5.35,13.79,13.79,0,0,0,4.77,3.45,15.27,15.27,0,0,0,6.1,1.21,14.26,14.26,0,0,0,8.43-2.24,9.48,9.48,0,0,0,3.95-6h-6.53q-4.59,0-6.88-1.36c-1.52-.91-2.29-2.7-2.29-5.37v-.87q0-4.19,2.25-5.46t6.92-1.27h17.16q4.19,0,5.51,2.05c.87,1.36,1.28,3.44,1.21,6.24v26.42c0,.32-.65.73-1.95,1.22a13,13,0,0,1-4.58.73,12.65,12.65,0,0,1-2.92-.34,9.15,9.15,0,0,1-2.78-1.17,8.19,8.19,0,0,1-2.34-2.29,11.56,11.56,0,0,1-1.61-3.71" transform="translate(-71.78 -44.75)"/><path class="cls-3" d="M500,145.67c2.94,0,5.14-.63,6.62-1.9a6.75,6.75,0,0,0,2.2-5.4q0-7.43-9-7.42h-8v14.72ZM529,173c.13.2,0,.65-.34,1.37a8.07,8.07,0,0,1-1.91,2.29,12.37,12.37,0,0,1-3.6,2.14,14,14,0,0,1-5.36.93,14.75,14.75,0,0,1-4-.49,11.69,11.69,0,0,1-3.32-1.51,14.28,14.28,0,0,1-2.92-2.58q-1.37-1.56-2.93-3.71l-8.87-11.79h-3.6v11c0,2.92-.72,5.17-2.15,6.73s-3.58,2.34-6.44,2.34h-2.73a7.09,7.09,0,0,1-6.19-3c-1.39-2-2.09-4.76-2.09-8.33V127.05c0-3.57.86-6.29,2.58-8.14s4.21-2.78,7.46-2.78H502q13.26,0,19.79,5.27t6.53,15.5a19.45,19.45,0,0,1-3.44,11.7,18.36,18.36,0,0,1-10.14,6.73Z" transform="translate(-71.78 -44.75)"/><path class="cls-4" d="M153.12,210.44c-3-.26-6-.64-8.85-1.14v19.61a12.31,12.31,0,0,0,12.31,12.3h37.88a12.3,12.3,0,0,0,12.3-12.3V212c-17,1.57-36.38.23-53.64-1.54" transform="translate(-71.78 -44.75)"/><path class="cls-4" d="M194.58,82.54A54.78,54.78,0,0,1,206.76,84V66a12.29,12.29,0,0,0-12.3-12.29H156.57A12.3,12.3,0,0,0,144.27,66V83.78c15.54-2.34,35.1-1.24,50.31-1.24" transform="translate(-71.78 -44.75)"/><path class="cls-4" d="M110.85,117.83c.06-.54.12-1.07.17-1.6H94.09a12.31,12.31,0,0,0-12.31,12.3v37.89a12.31,12.31,0,0,0,12.31,12.3h17.17c-.05-.51-.11-1-.15-1.56-2-28.46-1.63-44.56-.26-59.33" transform="translate(-71.78 -44.75)"/><path class="cls-4" d="M257,116.23H240.64c1.24,14.49.41,39,.47,48.84A78.92,78.92,0,0,1,240,178.72H257a12.3,12.3,0,0,0,12.29-12.3V128.53A12.3,12.3,0,0,0,257,116.23" transform="translate(-71.78 -44.75)"/><path class="cls-5" d="M132,116.23a12.3,12.3,0,0,0,12.3-12.3V83.78c-1.32.2-2.62.41-3.88.67-19.16,4-27.25,13.16-29.37,31.78h21Z" transform="translate(-71.78 -44.75)"/><path class="cls-5" d="M206.76,103.93a12.31,12.31,0,0,0,12.29,12.3h21.59c-.38-4.46-1-8-1.82-9.82C233.65,94.68,219.76,87.08,206.76,84v19.89Z" transform="translate(-71.78 -44.75)"/><path class="cls-5" d="M219.05,178.72A12.32,12.32,0,0,0,206.76,191V212l1.81-.17c19.27-1.81,28.51-16.09,31.45-33.09h-21Z" transform="translate(-71.78 -44.75)"/><path class="cls-5" d="M144.27,191a12.3,12.3,0,0,0-12.3-12.3H111.26c2.14,20.12,16.37,27.67,33,30.58V191Z" transform="translate(-71.78 -44.75)"/><path class="cls-6" d="M207.25,155c.06,10.9-4,21.66-15.86,22.78-8.48.9-18.31.22-27-.67-10-.9-19.58-4.07-20.46-16.21-1-13.87-.79-21.72-.12-28.9.88-9.61,4.79-14.27,14.38-16.28,7.82-1.56,18.36-.92,26.41-.92,7.37,0,18.2,4,21.55,11.63,1.79,3.79,1.08,22.31,1.12,28.57m33.39-38.73H219.05a12.31,12.31,0,0,1-12.29-12.3V84a54.78,54.78,0,0,0-12.18-1.5c-15.21,0-34.77-1.1-50.31,1.24v20.15a12.3,12.3,0,0,1-12.3,12.3H111c0,.53-.11,1.06-.17,1.6-1.36,14.76-1.78,30.87.26,59.33,0,.54.1,1.05.15,1.56H132a12.3,12.3,0,0,1,12.3,12.3V209.3c2.9.5,5.86.88,8.85,1.14,17.26,1.77,36.64,3.11,53.64,1.54V191a12.32,12.32,0,0,1,12.29-12.31h21a78.92,78.92,0,0,0,1.09-13.65c-.06-9.82.77-34.35-.47-48.84" transform="translate(-71.78 -44.75)"/><path class="cls-7" d="M206.13,126.39c-3.35-7.6-14.19-11.63-21.55-11.63-8.05,0-18.59-.64-26.41.92-9.6,2-13.49,6.67-14.38,16.28-.67,7.18-.87,15,.12,28.9.88,12.14,10.42,15.31,20.46,16.21,8.71.89,18.54,1.57,27,.67,11.83-1.12,15.92-11.88,15.86-22.77,0-6.27.67-24.79-1.12-28.58" transform="translate(-71.78 -44.75)"/></svg>