<svg width="435" height="368" viewBox="0 0 435 368" fill="none" xmlns="http://www.w3.org/2000/svg">
<path d="M243.318 91.3178L145.299 296.177C144.102 298.623 142.227 300.675 139.899 302.087C137.571 303.5 134.886 304.214 132.163 304.145H74.1676C71.4734 304.222 68.8128 303.532 66.4957 302.155C64.1785 300.777 62.3002 298.77 61.0794 296.367L-80.2349 0.153302H-5.64179C-2.94255 0.0809449 -0.278458 0.778455 2.03918 2.16432C4.3568 3.55019 6.23226 5.56717 7.44638 7.97959L105.987 217.155L209.127 1.3391L208.701 0.153302H297.425L433.428 350.676C434.017 352.324 434.256 354.076 434.129 355.821C434.002 357.566 433.512 359.266 432.691 360.81C431.869 362.355 430.735 363.711 429.359 364.792C427.984 365.873 426.398 366.655 424.703 367.088C423.17 367.583 421.571 367.839 419.961 367.847H208.701L232.411 304.715H324.36L243.318 91.3178Z" fill="#12253C"/>
</svg>
