<svg id="Layer_1" data-name="Layer 1" xmlns="http://www.w3.org/2000/svg" viewBox="0 0 175.36 79.03"><defs><style>.cls-1,.cls-3{fill:#8c837f;}.cls-1,.cls-2{stroke:#fff;stroke-miterlimit:10;stroke-width:10px;}.cls-2{fill:#fff;}.cls-4{fill:#ebc577;}.cls-5{fill:#d99136;}.cls-6{fill:#c95946;}.cls-7{fill:#97132f;}</style></defs><title>Logo Ngr</title><path class="cls-1" d="M139.17,75.21c-2,0-3-1.12-3-3.34V55a3.51,3.51,0,0,1,.79-2.52,2.9,2.9,0,0,1,2.19-.82h.68a5.45,5.45,0,0,1,1.08.09,2.59,2.59,0,0,1,.79.3,3.39,3.39,0,0,1,.66.54l.7.75,8.33,10.85V55q0-3.35,3.13-3.34h.61q3,0,3,3.34V71.87a3.59,3.59,0,0,1-.77,2.51,2.78,2.78,0,0,1-2.13.83h-.58a5.74,5.74,0,0,1-1.1-.09,2.94,2.94,0,0,1-.79-.27,2.6,2.6,0,0,1-.64-.49c-.21-.2-.43-.45-.67-.73l-8.5-11v9.27c0,2.22-1,3.34-3.13,3.34Z" transform="translate(-39.44 -23.91)"/><path class="cls-1" d="M179.21,72.44a6.4,6.4,0,0,1-2.62,2.16,9.78,9.78,0,0,1-4.13.79,11.18,11.18,0,0,1-4.56-.9,10.06,10.06,0,0,1-3.48-2.5,11.34,11.34,0,0,1-2.23-3.79,14,14,0,0,1-.79-4.81,12.6,12.6,0,0,1,.92-4.84,11.24,11.24,0,0,1,2.58-3.85,11.92,11.92,0,0,1,4-2.51,14.33,14.33,0,0,1,5.2-.9,16.41,16.41,0,0,1,3.9.42,10.37,10.37,0,0,1,2.89,1.14,5.18,5.18,0,0,1,1.79,1.71,4,4,0,0,1,.61,2.15,2.51,2.51,0,0,1-.54,1.64,4.25,4.25,0,0,1-1.18,1,4.6,4.6,0,0,1-1.22.52c-.38.1-.6.11-.65,0a6.33,6.33,0,0,0-2.28-1.83,6.58,6.58,0,0,0-2.89-.65,5.8,5.8,0,0,0-2.31.45,5.6,5.6,0,0,0-1.87,1.29,6,6,0,0,0-1.26,2,7.06,7.06,0,0,0-.45,2.56,7.47,7.47,0,0,0,.42,2.58,5.91,5.91,0,0,0,1.15,2A5,5,0,0,0,172,69.59a5.5,5.5,0,0,0,2.24.45,5.25,5.25,0,0,0,3.1-.83A3.48,3.48,0,0,0,178.78,67h-2.41a5,5,0,0,1-2.53-.5,2.1,2.1,0,0,1-.84-2v-.33c0-1,.27-1.7.83-2a5.37,5.37,0,0,1,2.54-.46h6.32a2.26,2.26,0,0,1,2,.75,4.11,4.11,0,0,1,.45,2.3v9.73q0,.18-.72.45a4.79,4.79,0,0,1-1.69.27,5,5,0,0,1-1.07-.13,3.42,3.42,0,0,1-1-.43,3,3,0,0,1-.86-.84,4.22,4.22,0,0,1-.59-1.37" transform="translate(-39.44 -23.91)"/><path class="cls-1" d="M199.14,62.68a3.61,3.61,0,0,0,2.43-.71,2.45,2.45,0,0,0,.82-2q0-2.73-3.33-2.73h-3v5.43Zm10.64,10.05c.05.07,0,.24-.12.5a3.12,3.12,0,0,1-.7.85,4.76,4.76,0,0,1-1.33.78,5.12,5.12,0,0,1-2,.35,5.48,5.48,0,0,1-1.47-.18,4.35,4.35,0,0,1-1.22-.56,5.58,5.58,0,0,1-1.08-1c-.33-.38-.69-.84-1.07-1.37l-3.27-4.34h-1.33v4.06a3.51,3.51,0,0,1-.79,2.47,3,3,0,0,1-2.37.87h-1a2.6,2.6,0,0,1-2.28-1.1A5.22,5.22,0,0,1,189,71V55.82a4.22,4.22,0,0,1,1-3,3.56,3.56,0,0,1,2.74-1h7.18q4.89,0,7.29,1.93a6.9,6.9,0,0,1,2.41,5.71,7.14,7.14,0,0,1-1.27,4.31,6.73,6.73,0,0,1-3.73,2.48Z" transform="translate(-39.44 -23.91)"/><path class="cls-2" d="M109,51.92h-6a12.25,12.25,0,0,0-.68-3.61c-1.9-4.32-7-7.12-11.8-8.24V33.44a4.53,4.53,0,0,0-4.53-4.53H72a4.53,4.53,0,0,0-4.53,4.53V40c1.07-.16,2.22-.27,3.38-.35-1.16.08-2.31.19-3.38.35-.49.07-1,.15-1.43.25C59,41.69,56,45.06,55.21,51.92H49a4.53,4.53,0,0,0-4.54,4.53v14A4.53,4.53,0,0,0,49,74.93H55.3l0-.32,0,.32c.79,7.41,6,10.2,12.16,11.27v7.22A4.53,4.53,0,0,0,72,98h14a4.53,4.53,0,0,0,4.53-4.53V87.18l.66-.06c7.1-.67,10.5-5.93,11.59-12.19H109a4.52,4.52,0,0,0,4.52-4.53v-14A4.52,4.52,0,0,0,109,51.92Z" transform="translate(-39.44 -23.91)"/><path class="cls-3" d="M138.85,75.14c-2,0-3.06-1.12-3.06-3.34V54.88a3.55,3.55,0,0,1,.79-2.51,2.9,2.9,0,0,1,2.19-.83h.69a5.19,5.19,0,0,1,1.07.1,2.59,2.59,0,0,1,.79.3,3.06,3.06,0,0,1,.67.54l.7.75L151,64.08v-9.2c0-2.22,1-3.34,3.12-3.34h.61c2,0,3,1.12,3,3.34V71.8a3.59,3.59,0,0,1-.77,2.51,2.8,2.8,0,0,1-2.14.83h-.58a5.55,5.55,0,0,1-1.09-.1,2.52,2.52,0,0,1-1.44-.75c-.2-.2-.42-.45-.66-.73l-8.51-11V71.8c0,2.22-1,3.34-3.12,3.34Z" transform="translate(-39.44 -23.91)"/><path class="cls-3" d="M178.88,72.37a6.24,6.24,0,0,1-2.62,2.15,9.63,9.63,0,0,1-4.13.79,11.33,11.33,0,0,1-4.55-.89,10,10,0,0,1-3.49-2.5,11.16,11.16,0,0,1-2.22-3.79,14,14,0,0,1-.79-4.81,12.65,12.65,0,0,1,.91-4.85,11.18,11.18,0,0,1,2.59-3.84,11.78,11.78,0,0,1,4-2.51,14.38,14.38,0,0,1,5.21-.9,16.33,16.33,0,0,1,3.89.42,10,10,0,0,1,2.89,1.14,5.3,5.3,0,0,1,1.8,1.71,4.09,4.09,0,0,1,.61,2.15,2.51,2.51,0,0,1-.54,1.64,4.29,4.29,0,0,1-1.19,1,4.8,4.8,0,0,1-1.22.52c-.38.1-.59.11-.64,0A6.54,6.54,0,0,0,177.11,58a6.6,6.6,0,0,0-2.89-.64,5.89,5.89,0,0,0-2.32.45A5.39,5.39,0,0,0,170,59.13a5.92,5.92,0,0,0-1.26,2,7,7,0,0,0-.45,2.56,7.76,7.76,0,0,0,.41,2.58,6.09,6.09,0,0,0,1.15,2,5.19,5.19,0,0,0,1.76,1.27,5.68,5.68,0,0,0,2.25.44,5.27,5.27,0,0,0,3.1-.82,3.47,3.47,0,0,0,1.45-2.23h-2.4a5,5,0,0,1-2.53-.5,2.1,2.1,0,0,1-.85-2v-.32a2.12,2.12,0,0,1,.83-2,5.37,5.37,0,0,1,2.55-.47h6.32a2.27,2.27,0,0,1,2,.76,4.12,4.12,0,0,1,.44,2.3v9.73c0,.12-.23.27-.71.45a5,5,0,0,1-1.69.27,5,5,0,0,1-1.08-.13,3.26,3.26,0,0,1-1-.43,3.15,3.15,0,0,1-.86-.85,4.39,4.39,0,0,1-.6-1.36" transform="translate(-39.44 -23.91)"/><path class="cls-3" d="M198.81,62.6a3.64,3.64,0,0,0,2.44-.7,2.48,2.48,0,0,0,.81-2q0-2.73-3.32-2.73h-3V62.6Zm10.65,10.06c0,.07,0,.24-.13.5a2.8,2.8,0,0,1-.7.84,4.42,4.42,0,0,1-1.33.79,5.1,5.1,0,0,1-2,.35,5.91,5.91,0,0,1-1.47-.18,4.35,4.35,0,0,1-1.22-.56,5,5,0,0,1-1.08-1,16.46,16.46,0,0,1-1.08-1.37l-3.27-4.34h-1.32V71.8a3.56,3.56,0,0,1-.79,2.47,3.05,3.05,0,0,1-2.37.87h-1a2.61,2.61,0,0,1-2.28-1.1,5.3,5.3,0,0,1-.77-3.07V55.75a4.27,4.27,0,0,1,1-3,3.57,3.57,0,0,1,2.75-1h7.18q4.88,0,7.28,1.93a6.9,6.9,0,0,1,2.41,5.71A7.14,7.14,0,0,1,208,63.68a6.75,6.75,0,0,1-3.73,2.48Z" transform="translate(-39.44 -23.91)"/><path class="cls-4" d="M71.05,86.45c-1.1-.09-2.19-.23-3.26-.41v7.22a4.53,4.53,0,0,0,4.54,4.53h14a4.53,4.53,0,0,0,4.53-4.53V87a105.57,105.57,0,0,1-19.76-.57" transform="translate(-39.44 -23.91)"/><path class="cls-4" d="M86.32,39.35a20,20,0,0,1,4.49.56V33.28a4.53,4.53,0,0,0-4.53-4.53h-14a4.53,4.53,0,0,0-4.54,4.53v6.53c5.73-.86,12.93-.46,18.53-.46" transform="translate(-39.44 -23.91)"/><path class="cls-4" d="M55.49,52.35l.06-.59H49.31a4.53,4.53,0,0,0-4.53,4.53V70.24a4.53,4.53,0,0,0,4.53,4.53h6.33q0-.27-.06-.57c-.75-10.48-.6-16.41-.09-21.85" transform="translate(-39.44 -23.91)"/><path class="cls-4" d="M109.29,51.76h-6c.46,5.34.15,14.37.18,18a29.75,29.75,0,0,1-.4,5h6.23a4.53,4.53,0,0,0,4.53-4.53V56.29a4.53,4.53,0,0,0-4.53-4.53" transform="translate(-39.44 -23.91)"/><path class="cls-5" d="M63.26,51.76a4.53,4.53,0,0,0,4.53-4.53V39.81c-.48.07-1,.15-1.42.25-7.06,1.47-10,4.84-10.82,11.7h7.71Z" transform="translate(-39.44 -23.91)"/><path class="cls-5" d="M90.81,47.23a4.53,4.53,0,0,0,4.52,4.53h8a12.47,12.47,0,0,0-.67-3.62c-1.9-4.31-7-7.11-11.8-8.23v7.32Z" transform="translate(-39.44 -23.91)"/><path class="cls-5" d="M95.33,74.77a4.53,4.53,0,0,0-4.52,4.54V87l.66-.06c7.1-.67,10.5-5.93,11.59-12.19H95.33Z" transform="translate(-39.44 -23.91)"/><path class="cls-5" d="M67.79,79.3a4.53,4.53,0,0,0-4.53-4.53H55.64c.78,7.41,6,10.19,12.15,11.27V79.3Z" transform="translate(-39.44 -23.91)"/><path class="cls-6" d="M91,66c0,4-1.49,8-5.84,8.39a51.07,51.07,0,0,1-10-.24c-3.7-.33-7.21-1.5-7.54-6a60.06,60.06,0,0,1,0-10.64c.32-3.54,1.76-5.25,5.29-6,2.88-.58,6.77-.34,9.73-.34,2.71,0,6.7,1.48,7.93,4.28.66,1.4.4,8.22.42,10.52m12.29-14.26h-8a4.53,4.53,0,0,1-4.52-4.53V39.91a20,20,0,0,0-4.49-.56c-5.6,0-12.8-.4-18.53.46v7.42a4.53,4.53,0,0,1-4.53,4.53H55.55l-.06.59c-.51,5.44-.66,11.37.09,21.85q0,.3.06.57h7.62a4.53,4.53,0,0,1,4.53,4.53V86c1.07.18,2.16.32,3.26.41A105.57,105.57,0,0,0,90.81,87V79.31a4.53,4.53,0,0,1,4.52-4.54h7.72a28.74,28.74,0,0,0,.41-5c0-3.62.28-12.65-.18-18" transform="translate(-39.44 -23.91)"/><path class="cls-7" d="M90.57,55.5c-1.23-2.8-5.22-4.28-7.93-4.28-3,0-6.85-.24-9.73.34-3.53.74-5,2.45-5.29,6a61.06,61.06,0,0,0,0,10.64c.33,4.48,3.84,5.65,7.54,6a51.07,51.07,0,0,0,10,.24C89.5,74,91,70,91,66c0-2.31.24-9.13-.42-10.53" transform="translate(-39.44 -23.91)"/></svg>