<svg width="47" height="47" viewBox="0 0 47 47" fill="none" xmlns="http://www.w3.org/2000/svg">
<path d="M40.8381 10.0786L31.0464 0.286865C30.8628 0.103271 30.6143 0 30.3541 0H9.79161C7.63254 0 5.875 1.75653 5.875 3.9167V43.0834C5.875 45.2435 7.63254 47 9.7917 47H37.2084C39.3675 47 41.125 45.2435 41.125 43.0833V10.7708C41.125 10.5107 41.0217 10.2622 40.8381 10.0786ZM31.3333 3.34297L37.782 9.7917H33.2916C32.2111 9.7917 31.3333 8.91293 31.3333 7.83339V3.34297ZM39.1667 43.0833C39.1667 44.1628 38.2888 45.0416 37.2084 45.0416H9.7917C8.71116 45.0416 7.83339 44.1628 7.83339 43.0833V3.9167C7.83339 2.83717 8.71125 1.95839 9.7917 1.95839H29.375V7.83339C29.375 9.99347 31.1325 11.75 33.2917 11.75H39.1667V43.0833Z" fill="white"/>
<path d="M34.2708 27.4165H12.7292C12.188 27.4165 11.75 27.8545 11.75 28.3957C11.75 28.9369 12.188 29.3749 12.7292 29.3749H34.2709C34.8121 29.3749 35.2501 28.9369 35.2501 28.3957C35.25 27.8545 34.812 27.4165 34.2708 27.4165Z" fill="white"/>
<path d="M34.2708 21.5415H12.7292C12.188 21.5415 11.75 21.9795 11.75 22.5207C11.75 23.0619 12.188 23.4999 12.7292 23.4999H34.2709C34.8121 23.4999 35.2501 23.0619 35.2501 22.5207C35.25 21.9795 34.812 21.5415 34.2708 21.5415Z" fill="white"/>
<path d="M34.2708 33.2915H12.7292C12.188 33.2915 11.75 33.7295 11.75 34.2707C11.75 34.8119 12.188 35.2499 12.7292 35.2499H34.2709C34.8121 35.2499 35.2501 34.8119 35.2501 34.2707C35.25 33.7295 34.812 33.2915 34.2708 33.2915Z" fill="white"/>
<path d="M24.4792 39.1665H12.7292C12.188 39.1665 11.75 39.6045 11.75 40.1457C11.75 40.6869 12.188 41.1249 12.7292 41.1249H24.4792C25.0204 41.1249 25.4584 40.6869 25.4584 40.1457C25.4583 39.6045 25.0204 39.1665 24.4792 39.1665Z" fill="white"/>
<path d="M21.5415 16.6457C21.5415 17.1869 21.9795 17.6249 22.5207 17.6249H34.2707C34.8119 17.6249 35.2499 17.1869 35.2499 16.6457C35.2499 16.1045 34.8119 15.6665 34.2707 15.6665H22.5207C21.9795 15.6666 21.5415 16.1046 21.5415 16.6457Z" fill="white"/>
<path d="M14.6875 15.6667H12.7292C12.188 15.6667 11.75 16.1047 11.75 16.6459C11.75 17.1871 12.188 17.6251 12.7292 17.6251H13.7084C13.7084 18.1663 14.1464 18.6043 14.6876 18.6043C15.2288 18.6043 15.6668 18.1663 15.6668 17.6251V17.4447C16.804 17.0391 17.625 15.9624 17.625 14.6875C17.625 13.0676 16.3073 11.75 14.6875 11.75C14.1482 11.75 13.7083 11.3111 13.7083 10.7708C13.7083 10.2306 14.1482 9.7916 14.6875 9.7916H16.6458C17.187 9.7916 17.625 9.35363 17.625 8.8124C17.625 8.27116 17.187 7.8332 16.6458 7.8332H15.6666C15.6666 7.29197 15.2286 6.854 14.6874 6.854C14.1462 6.854 13.7082 7.29197 13.7082 7.8332V8.01358C12.571 8.41923 11.75 9.49592 11.75 10.7708C11.75 12.3906 13.0677 13.7083 14.6875 13.7083C15.2268 13.7083 15.6667 14.1472 15.6667 14.6875C15.6667 15.2278 15.2268 15.6667 14.6875 15.6667Z" fill="white"/>
</svg>
