<svg width="37" height="47" viewBox="0 0 37 47" fill="none" xmlns="http://www.w3.org/2000/svg">
<path d="M35.8381 10.0786L26.0464 0.286865C25.8628 0.103271 25.6143 0 25.3541 0H4.79161C2.63254 0 0.875 1.75653 0.875 3.9167V43.0834C0.875 45.2435 2.63254 47 4.7917 47H32.2084C34.3675 47 36.125 45.2435 36.125 43.0833V10.7708C36.125 10.5107 36.0217 10.2622 35.8381 10.0786ZM26.3333 3.34297L32.782 9.7917H28.2916C27.2111 9.7917 26.3333 8.91293 26.3333 7.83339V3.34297ZM34.1667 43.0833C34.1667 44.1628 33.2888 45.0416 32.2084 45.0416H4.7917C3.71116 45.0416 2.83339 44.1628 2.83339 43.0833V3.9167C2.83339 2.83717 3.71125 1.95839 4.7917 1.95839H24.375V7.83339C24.375 9.99347 26.1325 11.75 28.2917 11.75H34.1667V43.0833Z" fill="#FB6619"/>
<path d="M29.2708 27.4165H7.7292C7.18796 27.4165 6.75 27.8545 6.75 28.3957C6.75 28.9369 7.18796 29.3749 7.7292 29.3749H29.2709C29.8121 29.3749 30.2501 28.9369 30.2501 28.3957C30.25 27.8545 29.812 27.4165 29.2708 27.4165Z" fill="#FB6619"/>
<path d="M29.2708 21.5415H7.7292C7.18796 21.5415 6.75 21.9795 6.75 22.5207C6.75 23.0619 7.18796 23.4999 7.7292 23.4999H29.2709C29.8121 23.4999 30.2501 23.0619 30.2501 22.5207C30.25 21.9795 29.812 21.5415 29.2708 21.5415Z" fill="#FB6619"/>
<path d="M29.2708 33.2915H7.7292C7.18796 33.2915 6.75 33.7295 6.75 34.2707C6.75 34.8119 7.18796 35.2499 7.7292 35.2499H29.2709C29.8121 35.2499 30.2501 34.8119 30.2501 34.2707C30.25 33.7295 29.812 33.2915 29.2708 33.2915Z" fill="#FB6619"/>
<path d="M19.4792 39.1665H7.7292C7.18796 39.1665 6.75 39.6045 6.75 40.1457C6.75 40.6869 7.18796 41.1249 7.7292 41.1249H19.4792C20.0204 41.1249 20.4584 40.6869 20.4584 40.1457C20.4583 39.6045 20.0204 39.1665 19.4792 39.1665Z" fill="#FB6619"/>
<path d="M16.5415 16.6457C16.5415 17.1869 16.9795 17.6249 17.5207 17.6249H29.2707C29.8119 17.6249 30.2499 17.1869 30.2499 16.6457C30.2499 16.1045 29.8119 15.6665 29.2707 15.6665H17.5207C16.9795 15.6666 16.5415 16.1046 16.5415 16.6457Z" fill="#FB6619"/>
<path d="M9.6875 15.6667H7.7292C7.18796 15.6667 6.75 16.1047 6.75 16.6459C6.75 17.1871 7.18796 17.6251 7.7292 17.6251H8.70839C8.70839 18.1663 9.14636 18.6043 9.68759 18.6043C10.2288 18.6043 10.6668 18.1663 10.6668 17.6251V17.4447C11.804 17.0391 12.625 15.9624 12.625 14.6875C12.625 13.0676 11.3073 11.75 9.6875 11.75C9.14819 11.75 8.7083 11.3111 8.7083 10.7708C8.7083 10.2306 9.14819 9.7916 9.6875 9.7916H11.6458C12.187 9.7916 12.625 9.35363 12.625 8.8124C12.625 8.27116 12.187 7.8332 11.6458 7.8332H10.6666C10.6666 7.29197 10.2286 6.854 9.68741 6.854C9.14617 6.854 8.70821 7.29197 8.70821 7.8332V8.01358C7.57103 8.41923 6.75 9.49592 6.75 10.7708C6.75 12.3906 8.06765 13.7083 9.6875 13.7083C10.2268 13.7083 10.6667 14.1472 10.6667 14.6875C10.6667 15.2278 10.2268 15.6667 9.6875 15.6667Z" fill="#FB6619"/>
</svg>
