<svg width="36" height="47" viewBox="0 0 36 47" fill="none" xmlns="http://www.w3.org/2000/svg">
<path d="M34.9631 10.0786L25.1714 0.286865C24.9878 0.103271 24.7393 0 24.4791 0H3.91661C1.75754 0 0 1.75653 0 3.9167V43.0834C0 45.2435 1.75754 47 3.9167 47H31.3334C33.4925 47 35.25 45.2435 35.25 43.0833V10.7708C35.25 10.5107 35.1467 10.2622 34.9631 10.0786ZM25.4583 3.34297L31.907 9.7917H27.4166C26.3361 9.7917 25.4583 8.91293 25.4583 7.83339V3.34297ZM33.2917 43.0833C33.2917 44.1628 32.4138 45.0416 31.3334 45.0416H3.9167C2.83616 45.0416 1.95839 44.1628 1.95839 43.0833V3.9167C1.95839 2.83717 2.83625 1.95839 3.9167 1.95839H23.5V7.83339C23.5 9.99347 25.2575 11.75 27.4167 11.75H33.2917V43.0833Z" fill="#603D1A"/>
<path d="M28.3958 27.4165H6.8542C6.31296 27.4165 5.875 27.8545 5.875 28.3957C5.875 28.9369 6.31296 29.3749 6.8542 29.3749H28.3959C28.9371 29.3749 29.3751 28.9369 29.3751 28.3957C29.375 27.8545 28.937 27.4165 28.3958 27.4165Z" fill="#603D1A"/>
<path d="M28.3958 21.5415H6.8542C6.31296 21.5415 5.875 21.9795 5.875 22.5207C5.875 23.0619 6.31296 23.4999 6.8542 23.4999H28.3959C28.9371 23.4999 29.3751 23.0619 29.3751 22.5207C29.375 21.9795 28.937 21.5415 28.3958 21.5415Z" fill="#603D1A"/>
<path d="M28.3958 33.2915H6.8542C6.31296 33.2915 5.875 33.7295 5.875 34.2707C5.875 34.8119 6.31296 35.2499 6.8542 35.2499H28.3959C28.9371 35.2499 29.3751 34.8119 29.3751 34.2707C29.375 33.7295 28.937 33.2915 28.3958 33.2915Z" fill="#603D1A"/>
<path d="M18.6042 39.1665H6.8542C6.31296 39.1665 5.875 39.6045 5.875 40.1457C5.875 40.6869 6.31296 41.1249 6.8542 41.1249H18.6042C19.1454 41.1249 19.5834 40.6869 19.5834 40.1457C19.5833 39.6045 19.1454 39.1665 18.6042 39.1665Z" fill="#603D1A"/>
<path d="M15.6665 16.6457C15.6665 17.1869 16.1045 17.6249 16.6457 17.6249H28.3957C28.9369 17.6249 29.3749 17.1869 29.3749 16.6457C29.3749 16.1045 28.9369 15.6665 28.3957 15.6665H16.6457C16.1045 15.6666 15.6665 16.1046 15.6665 16.6457Z" fill="#603D1A"/>
<path d="M8.8125 15.6667H6.8542C6.31296 15.6667 5.875 16.1047 5.875 16.6459C5.875 17.1871 6.31296 17.6251 6.8542 17.6251H7.83339C7.83339 18.1663 8.27136 18.6043 8.81259 18.6043C9.35383 18.6043 9.79179 18.1663 9.79179 17.6251V17.4447C10.929 17.0391 11.75 15.9624 11.75 14.6875C11.75 13.0676 10.4323 11.75 8.8125 11.75C8.27319 11.75 7.8333 11.3111 7.8333 10.7708C7.8333 10.2306 8.27319 9.7916 8.8125 9.7916H10.7708C11.312 9.7916 11.75 9.35363 11.75 8.8124C11.75 8.27116 11.312 7.8332 10.7708 7.8332H9.79161C9.79161 7.29197 9.35364 6.854 8.81241 6.854C8.27117 6.854 7.83321 7.29197 7.83321 7.8332V8.01358C6.69603 8.41923 5.875 9.49592 5.875 10.7708C5.875 12.3906 7.19265 13.7083 8.8125 13.7083C9.35181 13.7083 9.7917 14.1472 9.7917 14.6875C9.7917 15.2278 9.35181 15.6667 8.8125 15.6667Z" fill="#603D1A"/>
</svg>
