<svg width="48" height="48" viewBox="0 0 48 48" fill="none" xmlns="http://www.w3.org/2000/svg">
<path d="M47.9873 20.7644C47.9009 19.6405 47.3821 18.6179 46.5266 17.8848L42.3747 14.326V4.21347C42.3747 3.43684 41.7451 2.80731 40.9686 2.80731H35.3438C34.5671 2.80731 33.9563 3.43694 33.9563 4.21347V7.09422L26.8397 1.02906C25.2487 -0.333977 22.9394 -0.333789 21.3535 1.02503L1.47445 17.8846C-0.283647 19.391 -0.511741 22.0493 1.01826 23.8352C2.18442 25.1913 4.05239 25.6237 5.64483 25.064V46.5875C5.64483 47.3641 6.25571 47.9937 7.03224 47.9937H40.9685C41.7451 47.9937 42.3746 47.3641 42.3746 46.5875V25.0643C44.0185 25.6455 45.8471 25.1584 46.9841 23.8333C47.7172 22.9776 48.0735 21.8876 47.9873 20.7644ZM36.7499 5.61963H39.5811V11.9153L36.7499 9.50473V5.61963ZM29.7377 45.1814H18.2819V33.913H29.7377V45.1814ZM39.5811 45.1814H32.5313V32.5256C32.5313 31.7489 31.9017 31.1194 31.1252 31.1194H16.8756C16.099 31.1194 15.4882 31.749 15.4882 32.5256V45.1814H8.43849V23.0414L24.0894 9.76517L39.5812 23.0283V45.1814H39.5811ZM44.849 22.0026C44.3504 22.5836 43.4641 22.6688 42.8654 22.1555L25.0092 6.84944C24.4847 6.39972 23.7112 6.39785 23.1845 6.84476C22.8039 7.16744 5.21058 22.0915 5.13614 22.1547C4.5472 22.6586 3.65658 22.5899 3.1523 22.0033C2.64745 21.4141 2.7157 20.5245 3.29939 20.0243L23.1785 3.16459C23.7092 2.71009 24.4792 2.71 25.0095 3.16441L44.6965 20.0202C45.285 20.5246 45.3532 21.4143 44.849 22.0026Z" fill="#603D1A"/>
<path d="M28.3128 16.8691H19.6882C18.9116 16.8691 18.3008 17.4988 18.3008 18.2753V26.7124C18.3008 27.4891 18.9117 28.1186 19.6882 28.1186H28.3128C29.0895 28.1186 29.719 27.489 29.719 26.7124V18.2753C29.7191 17.4987 29.0895 16.8691 28.3128 16.8691ZM26.9254 25.3064H21.0944V19.6815H26.9254V25.3064Z" fill="#603D1A"/>
<path d="M25.4999 39.5565C26.2765 39.5565 26.9061 38.9269 26.9061 38.1503C26.9061 37.3737 26.2765 36.7441 25.4999 36.7441C24.7233 36.7441 24.0938 37.3737 24.0938 38.1503C24.0938 38.9269 24.7233 39.5565 25.4999 39.5565Z" fill="#603D1A"/>
</svg>
