<svg width="47" height="42" viewBox="0 0 47 42" fill="none" xmlns="http://www.w3.org/2000/svg">
<path d="M45.6317 5.50817C45.6288 5.50817 45.6259 5.50781 45.623 5.50781H33.1387V4.13086C33.1387 1.85315 31.2855 0 29.0078 0H17.9922C15.7145 0 13.8613 1.85315 13.8613 4.13086V5.50781H1.37695C0.610306 5.50781 0 6.13605 0 6.88477V37.1777C0 39.4554 1.85315 41.3086 4.13086 41.3086H42.8691C45.1469 41.3086 47 39.4554 47 37.1777V6.91381C47 6.91202 47 6.91022 47 6.90843C46.9473 6.00409 46.3911 5.51319 45.6317 5.50817ZM16.6152 4.13086C16.6152 3.37174 17.2331 2.75391 17.9922 2.75391H29.0078C29.7669 2.75391 30.3848 3.37174 30.3848 4.13086V5.50781H16.6152V4.13086ZM43.7125 8.26172L39.4364 21.0896C39.2489 21.6529 38.7239 22.0312 38.1305 22.0312H30.3848V20.6543C30.3848 19.8937 29.7684 19.2773 29.0078 19.2773H17.9922C17.2316 19.2773 16.6152 19.8937 16.6152 20.6543V22.0312H8.86951C8.27606 22.0312 7.7511 21.6529 7.56356 21.0896L3.28748 8.26172H43.7125ZM27.6309 22.0312V24.7852H19.3691V22.0312H27.6309ZM44.2461 37.1777C44.2461 37.9369 43.6283 38.5547 42.8691 38.5547H4.13086C3.37174 38.5547 2.75391 37.9369 2.75391 37.1777V15.3699L4.95094 21.9606C5.51391 23.6502 7.0888 24.7852 8.86951 24.7852H16.6152V26.1621C16.6152 26.9227 17.2316 27.5391 17.9922 27.5391H29.0078C29.7684 27.5391 30.3848 26.9227 30.3848 26.1621V24.7852H38.1305C39.9112 24.7852 41.4861 23.6502 42.0491 21.9606L44.2461 15.3699V37.1777Z" fill="white"/>
</svg>
